<?xml version="1.0" encoding="utf-8"?>
<!-- Generator: Adobe Illustrator 19.2.0, SVG Export Plug-In . SVG Version: 6.00 Build 0)  -->
<svg version="1.1" id="Layer_1" xmlns="http://www.w3.org/2000/svg" xmlns:xlink="http://www.w3.org/1999/xlink" x="0px" y="0px"
	 viewBox="-223 25 512 512" style="enable-background:new -223 25 512 512;" xml:space="preserve">
<style type="text/css">
	.st0{fill:none;stroke:#BDC3C7;stroke-width:10;stroke-miterlimit:10;}
	.st1{fill:#BDC3C7;}
	.st2{fill:#414F6B;}
	.st3{fill:#ECF0F1;}
</style>
<g>
	<path class="st0" d="M282.4,281c0,19.9,0,43.8-6.4,61.3c-94.3,50.6-110.4,44.2-231.9,44.2c-78.5,0-159.9,109-206.9,53.3
		c-37.6-44.6-51.5-96-51.5-158.9c0-141.4,105.9-245.5,247.3-245.5S282.4,139.6,282.4,281z"/>
	<path class="st1" d="M33,537c121.5,0,223.2-84.6,249.4-198.1L234.3,270L189,299l-84-118L-37,363l-50-20l-76.7,104
		C-116.8,502.6-45.5,537,33,537z"/>
	<polygon class="st2" points="105,181 111.1,343 189,299 	"/>
	<polygon class="st3" points="-133.4,446.6 -87,458.6 -41.9,514.1 40.6,442.1 7.6,365.6 105,181 -37,363 -87,343 -137,411 	"/>
	<polygon class="st2" points="-87,343 -87,382 -65.9,373.1 -76.4,418.1 -21.4,343 	"/>
	<polygon class="st2" points="87.1,439.1 126.1,380.5 195.1,359 228.1,426.8 189,399 111.1,481.1 	"/>
	<polygon class="st2" points="70.6,287.6 33,364.1 59.8,407.6 	"/>
	<polygon class="st3" points="208.6,313.1 228.1,371.6 252.1,347.6 	"/>
	<polygon class="st1" points="-41.9,443.6 -16,407.6 -28.9,452.6 	"/>
</g>
</svg>
